HIERARCHY
ROOT root
{
	OFFSET 0.000000 0.000000 0.000000
	CHANNELS 6 Xposition Yposition Zposition Zrotation Yrotation Xrotation
	JOINT lhip
	{
		OFFSET 0.058581 -0.082280 -0.017664
		CHANNELS 3 Zrotation Yrotation Xrotation
		JOINT lknee
		{
			OFFSET 0.043451 -0.386469 0.008037
			CHANNELS 3 Zrotation Yrotation Xrotation
			JOINT lankle
			{
				OFFSET -0.014790 -0.426874 -0.037428
				CHANNELS 3 Zrotation Yrotation Xrotation
				JOINT ltoe
				{
					OFFSET 0.041054 -0.060286 0.122042
					CHANNELS 3 Zrotation Yrotation Xrotation
					End Site
					{
						OFFSET 0.000000 0.000000 0.000000
					}
				}
			}
		}
	}
	JOINT rhip
	{
		OFFSET -0.060310 -0.090513 -0.013543
		CHANNELS 3 Zrotation Yrotation Xrotation
		JOINT rknee
		{
			OFFSET -0.043257 -0.383688 -0.004843
			CHANNELS 3 Zrotation Yrotation Xrotation
			JOINT rankle
			{
				OFFSET 0.019056 -0.420046 -0.034562
				CHANNELS 3 Zrotation Yrotation Xrotation
				JOINT rtoe
				{
					OFFSET -0.034840 -0.062106 0.130323
					CHANNELS 3 Zrotation Yrotation Xrotation
					End Site
					{
						OFFSET 0.000000 0.000000 0.000000
					}
				}
			}
		}
	}
	JOINT lowerback
	{
		OFFSET 0.004439 0.124404 -0.038385
		CHANNELS 3 Zrotation Yrotation Xrotation
		JOINT upperback
		{
			OFFSET 0.004488 0.137956 0.026820
			CHANNELS 3 Zrotation Yrotation Xrotation
			JOINT chest
			{
				OFFSET -0.002265 0.056032 0.002855
				CHANNELS 3 Zrotation Yrotation Xrotation
				JOINT lowerneck
				{
					OFFSET -0.013390 0.211636 -0.033468
					CHANNELS 3 Zrotation Yrotation Xrotation
					JOINT upperneck
					{
						OFFSET 0.010113 0.088937 0.050410
						CHANNELS 3 Zrotation Yrotation Xrotation
						End Site
						{
							OFFSET 0.000000 0.000000 0.000000
						}
					}
				}
				JOINT lclavicle
				{
					OFFSET 0.071702 0.114000 -0.018898
					CHANNELS 3 Zrotation Yrotation Xrotation
					JOINT lshoulder
					{
						OFFSET 0.122921 0.045205 -0.019046
						CHANNELS 3 Zrotation Yrotation Xrotation
						JOINT lelbow
						{
							OFFSET 0.255332 -0.015649 -0.022946
							CHANNELS 3 Zrotation Yrotation Xrotation
							JOINT lwrist
							{
								OFFSET 0.265709 0.012698 -0.007375
								CHANNELS 3 Zrotation Yrotation Xrotation
								End Site
								{
									OFFSET 0.000000 0.000000 0.000000
								}
							}
						}
					}
				}
				JOINT rclavicle
				{
					OFFSET -0.082954 0.112472 -0.023707
					CHANNELS 3 Zrotation Yrotation Xrotation
					JOINT rshoulder
					{
						OFFSET -0.113228 0.046853 -0.008472
						CHANNELS 3 Zrotation Yrotation Xrotation
						JOINT relbow
						{
							OFFSET -0.260127 -0.014369 -0.031269
							CHANNELS 3 Zrotation Yrotation Xrotation
							JOINT rwrist
							{
								OFFSET -0.269108 0.006794 -0.006027
								CHANNELS 3 Zrotation Yrotation Xrotation
								End Site
								{
									OFFSET 0.000000 0.000000 0.000000
								}
							}
						}
					}
				}
			}
		}
	}
}
MOTION
Frames: 10
Frame Time: 0.033333
0.412909 0.380249 0.971005 117.051412 19.624765 66.289030 20.369738 9.540767 -0.253392 -5.825093 2.374827 41.787058 1.921654 16.286914 -40.008930 0.000000 -0.000000 0.000000 -15.934628 3.711032 -34.694534 -0.720962 10.287551 16.108640 3.051365 -5.883081 5.589001 0.000000 -0.000000 0.000000 -0.883557 -7.926572 25.991226 10.106809 -3.900654 -2.192662 6.072686 -5.698535 3.524616 4.098533 2.327733 -4.495067 -3.321843 3.654921 10.896100 -26.366083 8.383142 7.061085 -51.849566 1.542772 2.312986 -4.458983 -38.783437 17.383754 7.441338 -11.474050 -13.759939 32.894173 -1.071193 0.741951 33.775220 13.100147 18.023477 12.827918 78.732314 30.433011 -15.332788 13.100709 -4.267178 
0.432939 0.380550 0.971899 121.232004 22.692374 65.008066 23.034335 7.384617 0.942731 -6.107554 -1.005914 43.793606 1.169342 16.166439 -42.080253 0.000000 -0.000000 0.000000 -17.824075 -0.831502 -37.904619 3.288668 2.603244 22.746741 12.842006 -4.370155 7.982755 0.000000 -0.000000 0.000000 0.089756 -7.609803 27.370813 11.808242 -3.412274 0.139101 6.959700 -4.948129 1.539674 4.239596 1.926495 -6.486838 -4.347101 0.537230 10.821294 -26.890956 4.851975 7.969817 -52.393035 -1.221572 3.659145 -2.300259 -38.895297 13.864278 8.714766 -11.461943 -13.710695 34.210599 1.661840 1.858141 33.000408 13.076825 17.056602 6.196159 78.153012 22.904184 -14.428214 14.073891 -2.448743 
0.454863 0.376058 0.974507 128.244068 25.810770 65.689486 25.396305 5.876211 0.209416 -6.940915 -5.861149 45.261153 1.909623 15.473776 -42.816718 0.000000 -0.000000 0.000000 -18.251303 -2.907808 -41.798879 4.310765 3.805379 38.117812 12.650413 -4.998764 10.983338 0.000000 -0.000000 0.000000 -0.339956 -6.610767 27.689164 13.650833 -3.064931 0.645823 7.844096 -4.755414 0.280283 5.168799 -0.326911 -7.956894 -3.624796 -3.230406 11.899926 -26.811231 0.892559 8.871584 -52.072882 -4.412877 5.064805 -1.757129 -37.890636 12.545575 10.930576 -10.843818 -14.762796 35.466338 3.746918 2.746616 33.973667 12.029029 16.512151 -4.201028 75.704284 12.378604 -11.850557 14.040540 -0.893521 
0.477634 0.372689 0.976953 141.669051 28.690899 69.858218 26.490988 2.928196 -4.388975 -9.227215 -11.298936 47.603881 3.580332 14.156861 -42.397562 0.000000 -0.000000 0.000000 -23.104304 -4.194603 -40.866354 7.995125 5.325188 53.468505 12.368240 -3.016554 15.777773 0.000000 -0.000000 0.000000 -0.508774 -5.737378 27.602635 14.974838 -4.049948 -1.490465 7.451951 -4.926722 -0.574737 6.520731 -3.725150 -9.427447 -1.885235 -9.985299 13.009508 -26.122259 -3.663678 9.371477 -50.833344 -8.600581 7.171371 -1.964577 -36.071285 15.268428 8.689360 -11.040510 -14.014417 35.987069 4.509738 3.085325 36.791034 9.143044 15.534462 -15.354783 72.669643 1.014707 -7.997961 11.756919 -5.535829 
0.500786 0.369508 0.975645 156.837588 30.502971 76.317703 28.043304 1.928586 -11.509479 -11.507318 -14.144783 49.473360 4.999442 10.636396 -41.605734 0.000000 -0.000000 0.000000 -27.398173 -5.058288 -36.569265 10.606969 5.851943 62.881385 17.609825 -0.509492 26.130108 0.000000 -0.000000 0.000000 -0.309045 -4.297480 26.868890 15.318583 -4.757200 -3.843767 6.712784 -4.386846 -2.102768 7.131786 -8.893869 -10.336085 1.106320 -17.552591 12.307246 -25.881398 -8.431279 9.697316 -49.700339 -13.008464 8.918174 -2.207661 -35.419063 18.890385 3.853732 -11.799768 -10.236410 35.055706 5.496022 3.985740 39.174478 5.010786 13.148910 -21.313523 69.913909 -7.544548 -7.435910 11.393941 -13.400335 
0.525447 0.365028 0.969588 169.200763 30.473588 82.893119 29.686270 3.482181 -18.924811 -12.884805 -13.300860 50.018825 5.968425 6.802483 -40.970245 0.000000 -0.000000 0.000000 -28.469678 -7.134087 -32.416145 11.395884 7.693781 66.994289 19.210660 0.024979 32.172967 0.000000 -0.000000 0.000000 -0.996850 -1.088930 25.469727 14.245200 -4.530260 -5.852611 6.103516 -3.306011 -2.987208 7.929858 -14.164854 -11.414723 5.517354 -25.059649 10.272231 -25.396384 -12.017700 9.696972 -49.340541 -17.506671 9.630429 -3.736316 -37.024197 22.558384 2.140315 -12.059083 -8.978813 34.130811 6.329728 5.742317 41.122269 1.604179 9.644567 -21.133192 66.469989 -6.636803 -9.959951 13.311841 -11.355311 
0.551204 0.362075 0.959452 178.614831 29.116750 88.141230 30.516777 4.871220 -25.478133 -13.061095 -10.245874 50.440799 6.163638 4.750546 -40.478562 0.000000 -0.000000 0.000000 -28.919789 -9.583668 -27.687273 7.992649 7.638014 66.165541 15.327386 -2.995207 29.518355 0.000000 -0.000000 0.000000 -2.820144 2.711530 24.565200 12.268005 -4.023101 -7.331358 5.575457 -2.256145 -3.213880 8.985586 -18.586278 -12.225371 10.179612 -31.333024 7.856508 -24.284461 -13.395506 9.705442 -49.319180 -21.259969 10.417803 -6.111340 -42.020537 25.956215 4.137069 -11.905005 -13.379678 33.696128 6.973944 7.152364 43.685304 -0.166641 7.572671 -20.356900 60.828541 -3.774698 -12.343015 13.445535 -5.747359 
0.577134 0.361480 0.945699 -173.589701 27.830040 93.048264 31.473805 5.309555 -31.932464 -13.835354 -8.668734 51.457171 5.827220 2.061729 -40.479053 0.000000 -0.000000 0.000000 -28.854758 -11.079264 -22.713594 4.565275 6.564095 60.566450 12.991651 -5.511338 27.800960 0.000000 -0.000000 0.000000 -4.757557 5.716120 23.812363 10.711457 -3.566649 -8.850142 5.261040 -1.654277 -3.229621 9.539658 -21.847386 -12.412754 13.650517 -35.495658 6.178922 -23.978569 -12.581304 9.808894 -48.551114 -23.560227 11.739331 -8.299387 -49.608105 27.768127 6.186827 -12.285771 -19.062670 34.155640 7.189593 7.747100 43.984949 -0.689153 8.188908 -16.948365 54.587901 -1.461498 -13.616104 12.151007 -5.953016 
0.603284 0.362198 0.931091 -167.604724 26.378252 97.428602 32.728758 4.937796 -37.946968 -15.468192 -7.971838 52.683279 5.166710 -1.119585 -40.321370 0.000000 -0.000000 0.000000 -28.372803 -11.127517 -18.267070 3.590593 6.813045 52.115494 14.434233 -4.001530 28.075055 0.000000 -0.000000 0.000000 -6.984568 8.384796 22.801713 9.486560 -3.586212 -9.122057 4.916442 -1.201978 -3.774109 10.297908 -23.279035 -12.338297 17.243855 -38.217158 3.387020 -24.479770 -11.284571 9.677287 -45.932485 -24.251429 12.377475 -9.477378 -57.767681 27.438727 7.911884 -13.362131 -22.851393 35.324357 7.481959 8.537422 43.862511 -0.573904 9.268110 -13.467723 49.069225 -0.043986 -13.587044 11.362521 -7.705472 
0.630140 0.364406 0.916988 -163.055456 24.958399 100.492461 33.600218 5.051579 -42.794988 -16.488439 -7.716855 53.908084 4.583841 -3.782324 -39.757764 0.000000 -0.000000 0.000000 -27.465651 -10.625181 -13.557937 2.045066 7.228980 42.275337 15.640472 -2.790681 27.230030 0.000000 -0.000000 0.000000 -8.780005 10.409869 22.849335 8.100465 -3.925231 -9.325425 4.582600 -0.839013 -4.176437 10.287453 -23.983088 -11.802243 20.038196 -39.263293 0.991441 -24.619051 -10.312084 9.664717 -42.396544 -24.074227 11.126431 -7.593035 -64.270566 24.464970 10.754924 -13.781905 -24.518729 35.616046 8.210284 9.089145 45.531561 -0.609535 10.075453 -10.789404 45.153076 2.477350 -13.283806 11.427705 -7.221433 
